<svg xmlns="http://www.w3.org/2000/svg" width="500" height="500"><g fill="none" fill-rule="evenodd"><rect width="500" height="500" fill="#0026F5" rx="53"/><g fill="#FFF"><path d="M132.567 287.526c3.15-16.736 6.208-33.024 9.357-49.31.54-2.79 1.62-5.4 2.43-8.19 4.228-15.566 13.315-26.814 28.79-32.573 7.648-2.88 15.026-6.479 22.853-9.988-11.516-12.508-25.192-19.437-42.016-17.997-8.998.81-17.905 3.33-26.812 5.039-1.17.18-2.43.63-3.509.45-1.08-.18-2.699-.72-2.969-1.44-.36-1.08 0-2.79.72-3.6 1.35-1.619 3.149-3.059 5.038-4.318 24.742-16.647 63.88-16.827 88.712-.36 15.565 10.258 23.123 25.375 25.822 43.282.18 1.08-1.08 2.88-2.16 3.6-4.498 2.969-9.267 5.578-13.675 8.638-1.26.9-2.43 2.969-2.52 4.499-.36 7.828-.27 15.567-.27 23.396 0 3.239 0 3.239 6.209 4.499 0 7.648.45 15.387-.27 23.126-.18 2.52-3.24 4.859-5.039 7.198-1.53 1.98-3.329 3.87-5.758 6.749-.27-10.348-.63-19.706-.81-28.975-.09-3.6.09-7.018-3.598-9.538-1.26-.9-.99-4.05-1.08-6.209-.36-9.718-.09-19.436-.9-29.155-.72-8.998-5.038-16.827-11.426-24.115-1.98 4.229-3.959 8.008-5.668 11.878-11.697 25.735-23.663 51.38-31.85 78.555-2.07 6.84-2.97 14.038-4.229 21.057-1.89 10.078-14.485 17.006-23.662 12.417-2.16-1.08-3.869-3.779-4.859-6.119-2.159-5.579-3.688-11.338-5.668-17.007-.81-2.25-2.249-4.319-3.419-6.478-.54.18-1.08.36-1.71.54v43.642c-32.299 5.399-58.21-5.85-61.99-41.663-3.778-37.973 9.628-70.997 34.01-99.702 2.699-3.15 5.668-6.209 8.907-8.908 1.71-1.44 4.139-2.52 6.388-2.97 1.17-.18 3.239.99 3.779 2.07.45.99-.18 3.33-1.17 4.05-16.735 12.237-24.292 29.694-27.711 49.22-3.689 20.427-2.43 40.853 2.52 61.01.989 4.049 2.608 8.008 4.588 11.607 1.26 2.43 3.419 4.59 5.488 6.39 1.26 1.079 3.329 1.079 4.948 1.619.36-1.62 1.17-3.33 1.17-4.95 0-23.125.09-46.161 3.959-69.017 1.08-6.569 2.879-13.227 5.398-19.346 2.969-7.289 8.187-7.739 13.496-1.89 3.688 3.96 4.768 8.818 4.498 14.127-.45 9.539-1.44 19.167-1.08 28.705.27 7.019 2.34 14.038 3.87 21.056.36 1.98 1.889 3.6 2.878 5.4z"/><path d="M99.353 144c2.249 1.98 4.948 3.51 6.477 5.851 3.239 4.952 7.107 7.832 13.225 6.662.72-.09 1.44.18 2.16.45.27.09.45.36.719.63-2.25 2.971-5.398 5.672-6.298 8.912-.9 3.331.36 7.292-.27 11.433-1.979-2.88-4.048-5.671-5.757-8.732-1.71-3.15-3.959-3.51-6.478-1.53-6.208 4.86-13.045 9.272-18.263 15.033-25.37 28.267-39.315 61.125-37.606 99.475.36 9.002 1.98 18.184 4.499 26.916 9.536 33.668 38.865 40.42 61.986 35.199 18.263-4.141 34.907-12.333 50.74-22.236 1.35-.9 2.79-1.8 4.23-2.7 2.338 2.25 4.318 4.95 7.017 6.301 2.429 1.26 5.667.99 9.266 2.52-7.377 5.402-14.484 11.253-22.222 16.115-18.443 11.612-39.045 17.284-60.636 16.654-27.44-.81-46.783-14.944-56.409-40.69-11.965-31.598-9.536-63.196 3.779-93.983 11.425-26.376 29.238-47.982 51.46-65.986 2.789-2.25 3.329-4.141 1.71-7.112-1.44-2.61-2.79-5.311-4.14-7.922.18-.36.54-.81.81-1.26zM227 321v-11.64c6.425-.902 6.603-1.173 6.692-7.67v-53.688c0-1.624-.089-3.249-.178-5.053-2.23-.18-4.105-.27-6.336-.451v-11.82c6.782-2.076 13.653-4.242 21.327-6.678v36.725c2.587-1.625 4.372-2.888 6.246-3.97 10.529-6.046 21.326-1.354 22.575 10.647 1.25 11.46.714 23.1.892 34.65.09 6.225.268 6.586 6.782 7.037v11.82h-26.59V309c4.996.451 5.085-2.978 5.085-6.767-.089-8.572.09-17.145-.089-25.717-.09-6.587-3.57-8.572-9.37-5.323-3.568 1.985-5.888 4.421-5.62 9.203.446 7.76.089 15.61.089 23.46 0 2.347.267 4.512 3.212 5.054.714.18 1.517 1.624 1.606 2.526.179 2.978.09 5.956.09 9.385-9.013.18-17.58.18-26.413.18zM353.617 272.77c-2.784-.902-6.108-1.264-6.288-2.257-.629-3.43-.18-7.131-.09-10.742 0-.09.18-.271.27-.361 6.108-2.077 12.127-4.153 18.774-6.41.27 3.43.45 5.687.63 8.757 2.245-1.625 3.862-2.98 5.658-4.243 5.21-3.611 10.78-5.417 16.799-2.528 6.018 2.889 8.444 8.305 8.533 14.715.18 10.472.18 21.034.27 31.596 0 6.41.27 6.771 6.827 7.584v12.096c-8.444 0-16.798.09-25.063-.09-.718 0-1.886-1.715-1.976-2.708-.27-2.98-.09-5.958-.09-9.479 4.761.361 5.75-2.528 5.75-6.229 0-8.396.18-16.882-.09-25.277-.09-3.25.27-7.403-4.761-7.854-3.953-.361-10.42 5.146-10.42 8.847-.09 8.305-.09 16.52 0 24.826 0 4.423.449 4.784 5.12 5.958v11.736h-26.32V309.06c6.288-1.264 6.377-1.444 6.377-7.944.09-9.48.09-19.048.09-28.347z"/><path fill-rule="nonzero" d="M461.6 308.75c.092.997.365 2.085.092 2.992-.821 3.082 2.28 7.252-2.098 9.246-4.832 2.266-12.036.544-15.5-3.354-.912-.997-1.733-2.085-2.645-3.354-5.197 3.898-10.212 8.34-17.142 7.252-3.009-.453-6.291-1.632-8.48-3.626-9.665-8.884-6.838-26.742 5.015-32.18 4.924-2.267 10.395-2.902 15.592-4.715 1.277-.453 2.553-1.994 2.918-3.354.456-1.813.091-3.897 0-5.892-.182-2.991-1.459-5.801-4.65-5.62-2.28.09-4.924 1.722-6.565 3.535-1.55 1.632-1.459 4.714-2.918 6.527-1.459 1.813-4.012 4.08-5.836 3.807-2.097-.272-4.832-2.538-5.744-4.623-2.097-4.895-.82-9.79 2.462-13.96 6.11-7.796 18.692-10.697 27.719-6.527 8.48 3.898 10.212 11.332 10.304 19.58.09 8.612 0 17.224 0 25.836.09 6.799.729 7.524 7.476 8.43zm-22.157-17.586c-4.194 1.723-7.659 2.63-10.486 4.351-3.373 2.085-4.103 5.893-2.37 9.156.82 1.632 4.012 3.445 5.653 2.992 3.465-.816 7.568-2.085 7.295-7.162-.183-2.629-.092-5.348-.092-9.337zM199.769 280.029c0-2.724.538-5.903-.18-8.627-.537-2.089-2.69-4.994-4.394-5.176-2.062-.272-4.842 1.544-6.457 3.36-1.524 1.634-1.434 4.722-2.87 6.538-1.524 1.816-4.394 4.268-6.187 3.905-2.153-.454-4.933-3.178-5.56-5.358-1.615-5.72 0-11.17 4.484-15.256 6.905-6.265 14.976-7.9 23.765-5.085 7.353 2.361 11.3 8.173 11.479 16.527.18 10.08.18 20.25.269 30.421.09 5.812 1.524 7.174 7.802 6.902 0 3.45.269 6.901-.18 10.261-.179 1.18-2.152 2.724-3.497 2.997-6.726 1.362-12.465-.091-16.232-6.993-1.256.909-2.332 1.544-3.318 2.361-7.354 5.63-14.708 6.72-20.268 3.088-5.829-3.814-8.788-13.258-6.815-21.613 1.524-6.356 5.201-10.987 11.21-13.167 5.2-2.088 10.761-3.36 16.949-5.085zm.09 10.897c-4.215 1.725-7.713 2.633-10.583 4.631-3.049 2.089-4.304 5.812-2.152 9.172 1.076 1.634 4.036 3.269 5.65 2.906 3.408-.817 7.354-2.18 7.174-7.174-.179-2.815-.09-5.54-.09-9.535zM341.718 308.356c0 1.544.179 2.815 0 3.995-.627 2.814 1.97 6.9-1.88 8.443-4.656 1.816-9.67 1.816-13.968-1.634-1.523-1.18-2.597-2.814-4.209-4.54a60.683 60.683 0 0 0-3.044 2.089c-7.253 5.538-14.774 6.718-20.236 3.086-5.73-3.903-8.595-12.891-6.894-21.153 1.433-6.99 5.551-11.62 12.088-13.89 5.014-1.725 10.296-2.905 15.937-4.449 0-3.086.538-6.718-.179-10.168-.358-1.634-2.954-3.813-4.566-3.903-1.97-.091-4.388 1.452-5.82 2.996-1.433 1.543-1.701 4.176-2.507 6.173-1.343 3.178-3.403 5.538-7.163 4.812-3.582-.727-5.014-3.541-5.462-6.9-.716-5.447.806-10.259 4.925-13.89 7.163-6.446 15.58-8.08 24.533-4.721 6.626 2.451 10.297 7.626 10.476 14.889.269 8.897.179 17.794.269 26.782 0 1.634-.09 3.359.09 4.993.357 5.81 1.432 6.809 7.61 6.99zm-22.385-16.069c-7.252.363-11.908 2.905-12.625 7.536-.358 2.178.448 5.356 1.88 6.718 1.165 1.18 4.478 1.09 6.358.272 5.283-2.179 6.178-5.81 4.387-14.526z"/></g></g></svg>